<?xml version="1.0" standalone="no"?>
<!DOCTYPE svg PUBLIC "-//W3C//DTD SVG 20010904//EN"
 "http://www.w3.org/TR/2001/REC-SVG-20010904/DTD/svg10.dtd">
<svg version="1.0" xmlns="http://www.w3.org/2000/svg"
 width="450.000000pt" height="411.000000pt" viewBox="0 0 450.000000 411.000000"
 preserveAspectRatio="xMidYMid meet">
<metadata>
Created by potrace 1.10, written by Peter Selinger 2001-2011
</metadata>
<g transform="translate(0.000000,411.000000) scale(0.100000,-0.100000)"
fill="#000000" stroke="none">
<path d="M1047 3815 c76 -110 136 -310 149 -495 2 -41 7 -88 9 -103 3 -17 1
-26 -5 -22 -6 3 -10 12 -10 18 0 7 -11 26 -24 42 -19 23 -27 27 -36 18 -10 -9
-7 -46 10 -164 22 -154 34 -419 19 -419 -5 0 -9 9 -9 19 0 11 -4 22 -9 25 -15
10 -21 -75 -12 -169 5 -49 6 -91 1 -93 -12 -5 18 -103 56 -182 86 -177 128
-314 165 -530 10 -61 12 -275 3 -330 -5 -31 -10 -36 -37 -38 -66 -5 -127 -59
-127 -113 0 -11 -4 -17 -10 -14 -5 3 -10 21 -10 39 0 44 -28 126 -52 153 -45
49 -178 84 -248 66 l-35 -9 50 -13 c28 -6 83 -26 123 -42 41 -17 82 -31 93
-32 11 -1 23 -13 28 -29 6 -16 6 -26 1 -23 -5 3 -10 -11 -12 -31 -5 -62 -55
-71 -115 -20 l-29 25 -30 -20 c-16 -10 -32 -19 -36 -19 -3 0 -16 16 -29 36
-21 35 -28 37 -71 19 -26 -11 -23 20 5 45 44 43 53 43 81 0 l26 -40 33 20 c17
11 35 20 39 20 3 0 16 -16 28 -35 30 -49 53 -59 69 -33 11 18 11 20 -4 14 -12
-4 -16 -1 -13 12 2 10 12 17 26 16 25 -1 29 11 7 20 -24 9 -44 -4 -47 -32 -3
-25 -4 -25 -31 16 -31 48 -39 50 -75 21 l-27 -21 -15 23 c-8 13 -22 32 -32 43
l-16 21 -26 -24 c-14 -14 -26 -19 -26 -12 0 21 -20 1 -21 -22 -1 -16 -3 -17
-6 -5 -2 9 3 28 11 41 15 22 15 25 -3 41 -20 18 -42 16 -73 -7 -20 -16 -35
-67 -19 -67 6 0 11 7 11 15 0 21 49 40 64 25 8 -8 5 -9 -9 -4 -16 6 -18 5 -7
-7 22 -24 13 -54 -29 -94 -55 -54 -72 -89 -66 -137 4 -29 0 -49 -15 -75 -20
-33 -20 -36 -4 -64 17 -29 13 -49 -18 -88 -6 -8 -12 -26 -13 -40 0 -14 -4 -44
-8 -66 -6 -34 -3 -44 17 -67 38 -44 102 -71 151 -65 l42 6 -24 -20 c-29 -23
-11 -25 32 -2 30 15 31 15 18 0 -29 -36 7 -15 48 27 47 48 103 68 192 70 44 1
47 -1 59 -31 13 -38 17 -39 67 -18 19 8 42 15 50 15 9 0 68 -23 132 -51 64
-28 137 -58 163 -65 80 -25 218 -17 266 14 7 5 16 22 21 38 5 20 15 30 37 35
59 14 230 80 284 109 138 75 224 110 337 139 67 17 125 31 128 31 4 0 3 5 0
10 -3 6 -1 10 4 10 6 0 11 -5 11 -11 0 -5 4 -8 9 -5 5 3 42 10 82 16 41 6 83
13 93 16 17 6 18 7 3 16 -19 10 -23 28 -6 28 5 0 7 -5 3 -12 -5 -8 -2 -9 9 -5
10 4 16 2 14 -6 -1 -7 18 -14 53 -17 66 -7 100 -2 100 15 0 8 14 13 38 13 41
0 395 10 415 11 86 6 233 -25 455 -96 102 -33 118 -35 170 -27 68 11 78 30 35
71 -16 16 -37 40 -46 55 -10 15 -30 31 -45 34 -36 9 -61 31 -77 71 -31 74
-184 205 -212 181 -10 -8 -19 -6 -36 9 -55 51 -102 44 -155 -24 -28 -34 -62
-44 -62 -18 0 9 11 38 25 65 26 50 47 64 100 62 28 -1 29 0 11 14 -11 8 -37
14 -58 14 -44 0 -112 -25 -104 -39 7 -10 -74 -115 -82 -107 -3 3 2 14 10 23 8
10 18 25 22 33 4 8 -7 -2 -24 -22 -22 -27 -40 -38 -58 -38 l-27 0 29 15 c15 8
37 26 48 41 11 14 26 23 33 20 7 -2 21 4 30 14 16 18 16 19 -9 16 -15 -2 -46
-21 -69 -43 -23 -22 -55 -43 -72 -47 l-30 -6 25 18 c14 9 51 41 82 70 32 28
61 52 65 52 4 0 2 -5 -5 -12 -19 -19 -14 -33 6 -15 10 9 33 23 52 31 l35 15
-43 1 c-29 0 -64 -11 -112 -35 -81 -41 -97 -44 -76 -13 9 12 16 36 16 53 l0
30 -19 -30 c-11 -18 -35 -38 -59 -47 l-42 -16 27 34 c25 33 26 61 1 36 -7 -7
-41 -12 -82 -12 -66 1 -69 2 -45 15 14 7 45 16 70 19 24 2 45 5 47 5 2 1 1 5
-3 10 -8 13 -108 3 -170 -16 -27 -9 -65 -27 -82 -41 l-33 -24 2 43 c1 65 -1
79 -13 79 -8 0 -9 -19 -4 -60 6 -55 5 -61 -19 -83 -41 -38 -78 -44 -190 -29
-56 7 -111 11 -123 9 -32 -6 -29 -1 17 29 22 15 38 29 36 32 -3 2 -24 -9 -48
-25 -24 -16 -52 -32 -62 -36 -20 -8 -20 -8 0 14 24 27 92 62 108 56 7 -3 37 3
67 14 58 20 116 27 69 8 -32 -13 -60 -39 -60 -56 0 -32 137 -7 182 34 31 28
20 36 -12 9 -17 -14 -47 -28 -68 -31 -20 -3 -47 -8 -59 -11 -13 -2 -23 0 -23
6 0 14 41 39 78 46 49 10 38 24 -18 24 -99 0 -234 -44 -274 -89 -24 -26 -61
-27 -83 -2 -9 11 -21 17 -27 13 -6 -3 -18 -7 -26 -9 -10 -1 -9 3 4 13 23 17
33 18 41 4 4 -6 11 -7 17 -4 6 4 21 8 34 10 13 1 56 27 96 57 40 30 88 62 105
71 18 9 39 29 47 44 8 15 29 43 45 62 17 19 34 51 37 70 4 19 13 47 20 62 18
35 18 44 -2 52 -25 10 -66 -18 -130 -91 -48 -54 -71 -71 -107 -81 -25 -8 -60
-25 -79 -38 l-33 -25 -5 63 c-7 86 -42 156 -133 265 -85 101 -99 129 -96 188
2 23 -1 47 -5 54 -4 7 -5 15 -2 18 3 4 6 1 6 -6 0 -7 5 -9 10 -6 6 4 7 12 4
18 -4 7 -4 9 1 5 4 -4 27 9 50 28 75 61 213 99 375 103 125 3 275 -29 429 -90
95 -38 121 -39 121 -3 0 34 -145 90 -314 120 -156 28 -400 14 -523 -30 -52
-18 -124 -66 -117 -77 3 -5 -2 -6 -10 -3 -19 7 -21 -7 -3 -26 10 -12 9 -12 -5
-1 -15 11 -21 6 -52 -36 -19 -26 -38 -61 -42 -77 -10 -47 14 -107 72 -176 82
-98 112 -148 120 -195 8 -55 0 -79 -32 -93 -34 -16 -35 -16 -28 16 7 26 6 26
-12 11 -10 -9 -34 -21 -52 -27 -31 -11 -32 -10 -26 13 4 15 2 25 -5 25 -6 0
-11 -3 -11 -7 0 -10 -58 -43 -92 -54 -44 -12 -35 3 33 54 20 15 46 27 57 27
12 0 22 5 22 10 0 17 -81 0 -130 -27 -25 -14 -56 -36 -71 -49 -30 -29 -39 -30
-39 -6 0 23 30 52 53 52 9 0 17 5 17 11 0 13 -64 4 -124 -17 l-39 -14 19 22
c10 13 22 25 26 28 11 9 27 58 21 64 -4 3 -17 6 -30 6 -14 0 -33 4 -43 10 -17
9 -17 12 -4 40 8 16 18 45 21 65 5 32 3 35 -17 35 l-23 0 20 23 c37 39 68 137
44 137 -14 0 -33 -28 -29 -42 5 -15 -48 -114 -60 -111 -4 1 -8 -12 -7 -29 0
-18 -6 -33 -14 -36 -10 -3 -12 0 -7 14 6 16 4 15 -14 -3 -11 -13 -24 -23 -28
-23 -4 0 8 14 26 30 18 17 28 30 23 30 -5 0 -5 12 2 29 6 17 16 27 24 24 9 -4
13 4 13 26 0 41 -13 39 -28 -3 -11 -30 -16 -34 -45 -31 -18 1 -37 -2 -44 -7
-9 -7 -10 -3 -4 19 4 15 6 35 4 43 -3 10 0 9 7 -3 6 -9 9 -21 6 -25 -2 -4 4
-9 15 -9 10 -1 19 5 19 13 0 8 -3 13 -7 13 -21 -3 -24 3 -12 18 8 10 9 14 2
10 -6 -4 -15 -2 -19 4 -4 7 -3 9 3 6 12 -7 26 20 18 33 -2 4 7 7 21 7 14 0 36
11 50 24 14 13 29 23 32 21 4 -2 8 2 10 10 2 9 0 8 -7 -2 -9 -13 -11 -12 -11
3 0 11 5 17 13 14 13 -4 11 -54 -3 -72 -4 -5 -11 -20 -14 -32 -6 -19 -4 -23
15 -23 17 0 20 3 12 11 -8 8 -7 18 3 37 19 36 18 77 -3 93 -12 11 -17 11 -20
2 -3 -7 -13 -23 -24 -35 -19 -22 -19 -21 1 19 11 23 20 50 20 61 0 10 4 22 9
28 13 14 43 112 39 129 -2 11 -11 5 -31 -20 -23 -29 -26 -38 -16 -56 8 -16 8
-24 -1 -33 -8 -8 -10 -6 -5 9 3 11 -1 7 -11 -9 -12 -21 -14 -34 -6 -46 7 -12
4 -25 -10 -50 -10 -19 -17 -27 -14 -17 4 11 9 31 12 45 l6 27 -17 -23 c-18
-24 -20 -45 -10 -79 5 -15 3 -23 -4 -23 -6 0 -11 10 -12 23 l0 22 -9 -22 c-11
-27 -22 -31 -14 -5 7 20 33 79 46 105 6 12 5 17 -7 17 -8 0 -14 -3 -14 -7 3
-18 -2 -36 -7 -30 -4 3 -16 2 -26 -4 -15 -8 -23 -8 -32 2 -8 9 -8 10 3 4 10
-6 13 -4 9 6 -4 10 1 15 12 15 10 0 16 -5 13 -10 -3 -5 -1 -6 5 -2 7 4 8 17 1
39 -11 39 -11 46 0 29 7 -11 9 -11 14 2 4 9 2 16 -3 16 -6 0 -9 15 -7 34 1 19
6 32 11 29 4 -3 5 4 2 15 -4 11 -2 23 4 27 16 10 12 42 -6 49 -24 9 -31 7 -11
-5 9 -5 17 -15 17 -20 0 -6 -4 -7 -10 -4 -5 3 -10 2 -10 -4 0 -6 -6 -8 -14 -5
-7 3 -12 16 -10 29 1 14 -3 28 -8 32 -7 4 -8 1 -3 -7 5 -9 4 -11 -4 -6 -6 4
-9 12 -6 17 4 5 2 9 -2 9 -5 0 -9 9 -9 20 0 11 5 19 11 17 5 -2 10 -10 10 -18
0 -8 5 -15 10 -16 13 -2 7 28 -10 47 -7 8 -15 22 -19 30 -3 8 -4 5 -2 -7 2
-13 0 -25 -5 -28 -4 -3 -6 -12 -2 -20 3 -8 0 -15 -6 -15 -8 0 -8 -5 0 -18 9
-14 7 -33 -5 -81 -9 -34 -13 -68 -9 -73 3 -6 2 -8 -4 -5 -6 4 -21 -5 -33 -18
-30 -32 -11 -32 40 0 26 17 38 30 34 40 -4 8 -1 15 6 15 7 0 9 8 5 19 -6 21 9
36 26 25 8 -5 8 -9 -1 -14 -9 -6 -9 -13 -1 -28 7 -14 8 -23 1 -27 -5 -3 -10
-1 -10 4 0 6 -4 11 -8 11 -5 0 -7 -13 -4 -30 3 -18 -4 -45 -17 -71 -12 -22
-19 -49 -16 -59 3 -10 -2 -23 -12 -31 -16 -13 -17 -12 -4 4 12 15 9 38 -4 26
-9 -10 -35 -79 -29 -79 3 0 24 16 47 35 22 19 44 35 48 35 15 0 1 -77 -25
-144 -15 -37 -25 -74 -22 -81 3 -9 0 -12 -10 -8 -7 3 -14 0 -14 -6 0 -14 9
-14 48 0 17 6 41 9 53 7 21 -3 20 -5 -15 -50 -29 -39 -33 -48 -18 -49 42 -3
75 -8 80 -13 3 -3 -3 -15 -13 -26 -18 -20 -17 -20 12 -20 16 0 32 -3 35 -6 10
-10 -10 -66 -33 -90 -13 -14 -17 -24 -10 -29 15 -9 14 -25 -1 -25 -7 0 -24 -9
-38 -20 -14 -11 -35 -20 -48 -20 -57 0 -113 -57 -146 -147 -7 -21 -17 -46 -21
-56 -11 -27 23 -11 70 34 32 30 51 39 92 45 48 6 52 9 69 48 25 54 89 117 140
137 l41 16 -4 -46 c-5 -50 -32 -81 -88 -102 -43 -16 -75 -32 -72 -35 2 -2 25
3 51 11 45 14 160 37 196 39 8 1 31 13 50 27 45 34 203 89 176 62 -4 -5 -22
-14 -39 -21 -32 -12 -32 -12 11 -7 24 3 60 13 80 22 21 9 42 17 47 17 6 1 13
6 17 11 12 15 10 -7 -2 -25 -8 -13 -10 -13 -10 -1 0 9 -12 2 -31 -17 -18 -18
-42 -35 -55 -38 -13 -3 -24 -10 -24 -16 0 -17 44 3 78 35 17 17 32 26 32 19 0
-6 -16 -24 -35 -39 -19 -15 -35 -30 -35 -33 0 -5 25 -6 96 -2 20 1 47 16 75
41 43 37 121 81 145 81 10 0 65 56 122 124 13 15 26 25 29 23 8 -8 -28 -97
-51 -130 -12 -16 -21 -43 -21 -60 0 -25 -8 -37 -47 -65 -27 -19 -48 -31 -48
-29 0 3 21 21 46 39 25 18 40 34 34 36 -6 2 -30 -10 -52 -28 -37 -30 -40 -31
-33 -10 5 16 4 20 -5 15 -6 -4 -10 -15 -8 -24 3 -9 -3 -24 -13 -35 -18 -18
-18 -17 -13 20 l5 39 -15 -38 c-14 -38 -35 -69 -23 -34 4 9 2 17 -3 17 -6 0
-10 -9 -10 -20 0 -11 -9 -29 -20 -40 -21 -21 -46 -28 -34 -9 4 8 -1 9 -17 4
-23 -7 -23 -7 -6 12 34 39 16 35 -21 -5 -27 -30 -47 -42 -76 -46 -27 -3 -36
-2 -29 5 5 5 19 11 31 12 11 0 18 5 15 11 -4 5 1 7 10 3 16 -6 45 19 33 30 -3
3 -6 0 -6 -7 0 -7 -3 -11 -6 -7 -9 8 -74 -19 -99 -42 -20 -18 -85 -45 -85 -35
0 3 -10 -1 -22 -7 -21 -11 -22 -11 -9 5 8 9 20 15 27 12 8 -3 13 0 11 6 -1 6
4 13 12 16 8 3 11 0 7 -7 -4 -6 -3 -11 3 -11 14 0 83 61 76 68 -3 3 -12 -3
-20 -15 -16 -23 -55 -37 -55 -21 0 6 -9 3 -20 -7 -11 -10 -20 -14 -20 -10 0 5
-11 -2 -25 -15 -14 -13 -27 -21 -30 -18 -3 3 1 11 10 18 8 7 15 22 14 34 0 14
-2 16 -6 6 -3 -8 -14 -25 -25 -36 -13 -14 -16 -24 -9 -29 18 -10 12 -24 -9
-22 -11 1 -20 8 -20 15 0 12 3 12 18 1 15 -13 16 -12 3 4 -11 14 -11 20 -1 32
7 9 11 18 8 21 -7 6 -53 -68 -50 -79 2 -5 -2 -6 -8 -2 -5 3 -10 1 -10 -5 0 -7
-6 -10 -14 -7 -8 3 -22 -3 -31 -13 -10 -11 -21 -17 -25 -15 -4 3 -19 -4 -33
-15 -33 -26 -47 -26 -16 0 15 12 19 19 10 20 -7 0 1 13 18 29 17 16 31 35 31
41 0 7 -28 -17 -63 -54 -34 -36 -70 -66 -79 -66 -12 0 -15 -5 -11 -17 6 -17 6
-17 -10 -1 -17 17 -54 18 -50 1 1 -5 -4 -10 -12 -10 -17 0 -15 21 8 64 10 18
16 35 15 37 -2 2 8 13 22 25 32 26 11 28 -22 1 -14 -10 -28 -17 -31 -14 -3 4
-28 -12 -55 -35 -26 -23 -53 -41 -59 -41 -13 0 -83 84 -83 100 0 6 -4 9 -9 6
-5 -3 -14 1 -21 9 -23 28 -42 17 -114 -64 l-39 -44 7 36 c8 44 9 238 1 292 -7
48 -43 226 -55 275 -5 19 -11 47 -14 62 -2 15 -21 62 -41 105 -58 122 -98 225
-100 258 -2 17 -5 50 -9 75 -3 25 -8 76 -11 114 -4 59 -3 67 10 56 12 -10 16
-9 22 6 17 40 6 283 -17 416 -6 29 -12 78 -15 108 l-6 55 17 -30 c10 -16 23
-47 29 -68 19 -65 30 -46 33 58 4 148 -37 375 -84 468 -8 15 -11 27 -6 27 29
0 128 -272 145 -397 6 -46 12 -81 14 -80 2 2 5 64 8 137 3 74 7 136 9 137 2 2
14 -38 27 -89 25 -101 32 -277 15 -395 -6 -45 -5 -63 3 -63 6 0 11 15 11 34 0
18 9 55 20 82 10 27 29 83 41 124 17 57 24 70 30 55 14 -36 9 -129 -12 -235
-34 -168 -33 -160 -7 -115 13 22 35 74 48 115 13 41 27 80 33 87 5 7 7 18 5
25 -6 17 -32 -35 -48 -97 -23 -89 -27 -69 -7 33 19 95 19 102 3 175 -10 43
-20 77 -24 77 -4 0 -18 -45 -31 -100 -13 -56 -27 -102 -30 -104 -3 -2 -6 53
-7 122 0 104 -5 138 -22 187 -40 109 -67 165 -80 165 -9 0 -10 -5 -3 -18 10
-18 14 -76 11 -152 l-2 -45 -13 60 c-14 62 -33 112 -91 230 -31 65 -81 128
-129 165 -18 14 -18 13 2 -15z m663 -1255 c0 -5 -4 -10 -9 -10 -5 0 -12 -19
-16 -42 -4 -24 -9 -38 -12 -31 -6 17 16 93 27 93 6 0 10 -4 10 -10z m1107 -96
c-3 -3 -12 -4 -19 -1 -8 3 -5 6 6 6 11 1 17 -2 13 -5z m46 -9 c-3 -9 -8 -14
-10 -11 -3 3 -2 9 2 15 9 16 15 13 8 -4z m-383 -5 c0 -5 -8 -10 -17 -10 -15 0
-16 2 -3 10 19 12 20 12 20 0z m479 -4 c25 -3 50 -11 55 -17 8 -9 7 -10 -1 -5
-7 4 -13 2 -13 -3 0 -6 -8 -11 -17 -11 -14 0 -15 2 -5 9 15 9 -29 21 -75 21
-13 0 -22 4 -18 10 3 5 11 7 18 5 7 -2 32 -6 56 -9z m-1099 -6 c0 -5 -5 -10
-11 -10 -5 0 -7 5 -4 10 3 6 8 10 11 10 2 0 4 -4 4 -10z m1235 -30 c15 -6 23
-15 20 -21 -4 -6 2 -13 14 -16 12 -3 21 -9 21 -14 0 -7 -37 5 -125 41 -11 5
-15 9 -9 9 6 1 28 -6 48 -14 39 -16 51 -5 14 13 -29 14 -18 15 17 2z m-791
-35 c-4 -8 -11 -15 -16 -15 -6 0 -5 6 2 15 7 8 14 15 16 15 2 0 1 -7 -2 -15z
m883 -1 c-3 -3 -12 -4 -19 -1 -8 3 -5 6 6 6 11 1 17 -2 13 -5z m0 -30 c-3 -3
-12 -4 -19 -1 -8 3 -5 6 6 6 11 1 17 -2 13 -5z m-977 -84 c0 -5 -8 -10 -17
-11 -15 0 -15 -2 2 -9 20 -9 20 -9 0 -10 -17 -1 -18 -2 -5 -13 19 -15 20 -39
1 -45 -9 -3 -11 0 -7 9 4 8 0 5 -9 -6 -17 -20 -17 -20 -10 4 5 18 4 22 -5 16
-8 -5 -11 -4 -6 3 4 6 14 9 24 6 15 -5 15 -4 1 8 -9 7 -14 20 -11 28 8 25 42
41 42 20z m7 -107 c0 -25 -16 -43 -32 -37 -16 7 -13 33 6 45 20 13 26 11 26
-8z m23 -30 c-1 -11 -26 -43 -34 -43 -10 0 -7 25 6 38 13 13 28 16 28 5z m20
-31 c0 -4 -6 -14 -12 -21 -11 -11 -9 -12 8 -7 18 6 32 -6 83 -71 64 -82 101
-170 101 -242 0 -52 -19 -72 -74 -81 l-47 -7 24 26 c31 34 49 82 45 117 l-4
29 -12 -27 c-6 -16 -13 -28 -15 -28 -1 0 -3 24 -4 53 -1 70 -22 117 -84 182
-43 46 -50 57 -39 70 13 16 30 20 30 7z m-430 -62 c0 -5 -4 -10 -10 -10 -5 0
-10 5 -10 10 0 6 5 10 10 10 6 0 10 -4 10 -10z m-11 -92 c-5 -10 -12 -18 -15
-18 -2 0 0 9 7 21 7 14 8 24 1 31 -6 6 -8 18 -4 26 4 12 8 9 13 -12 5 -16 4
-37 -2 -48z m31 63 c0 -6 -4 -13 -10 -16 -5 -3 -10 1 -10 9 0 9 5 16 10 16 6
0 10 -4 10 -9z m945 -78 c-5 -10 -13 -36 -19 -58 -9 -33 -40 -85 -78 -129 -19
-23 -6 14 17 49 30 44 67 134 59 147 -3 4 2 8 11 8 13 0 15 -5 10 -17z m-899
-58 c1 -14 -2 -25 -8 -25 -5 0 -6 6 -3 13 7 13 -17 -15 -41 -47 -7 -11 -17
-17 -20 -13 -8 7 22 56 45 75 14 10 14 11 -3 5 -13 -4 -17 -3 -12 5 13 22 41
13 42 -13z m199 -71 c-53 -39 -67 -56 -57 -66 11 -11 71 4 110 28 12 8 22 10
22 5 0 -6 -21 -19 -47 -31 -26 -11 -55 -28 -65 -37 -10 -8 -32 -17 -50 -18
-18 -1 -48 -5 -66 -9 -32 -8 -32 -7 23 45 56 53 121 98 140 98 6 0 1 -6 -10
-15z m-266 -47 c-18 -12 -46 -47 -62 -77 -28 -54 -29 -55 -81 -61 -46 -5 -58
-12 -94 -50 l-42 -44 17 45 c28 75 62 120 100 136 43 19 54 12 18 -12 -14 -9
-33 -31 -42 -48 -13 -25 -4 -20 45 29 58 56 131 104 161 105 8 0 -1 -10 -20
-23z m1237 -160 c-11 -7 -33 -24 -51 -39 -17 -15 -55 -36 -84 -47 -48 -18 -52
-18 -37 -2 9 10 13 21 9 26 -5 4 -2 5 5 1 7 -4 26 2 43 15 27 19 114 58 129
58 3 0 -4 -6 -14 -12z m52 -38 c45 -1 44 -2 -16 -10 -35 -4 -76 -16 -90 -25
-27 -16 -26 -16 3 15 16 17 35 29 43 26 7 -3 35 -6 60 -6z m67 -19 c-18 -28
-112 -63 -180 -66 l-70 -3 45 21 c25 11 79 29 120 38 95 22 92 22 85 10z m86
-19 c-12 -16 -37 -35 -56 -41 -19 -6 -35 -15 -35 -19 0 -10 79 13 140 41 l45
20 -34 -36 c-19 -20 -51 -41 -70 -47 -20 -6 -40 -14 -45 -17 -26 -15 241 -66
286 -54 12 3 38 23 58 44 67 70 101 55 285 -124 62 -60 117 -105 146 -118 47
-20 90 -65 103 -107 5 -15 3 -23 -4 -23 -6 0 -9 4 -6 9 3 5 -13 6 -37 4 -41
-5 -97 10 -217 57 -55 22 -74 25 -50 10 13 -8 12 -10 -2 -10 -10 0 -18 7 -18
15 0 11 11 15 36 15 19 0 33 4 30 9 -3 5 -26 5 -52 0 -60 -11 -69 -4 -15 11
23 6 41 15 41 20 0 5 -15 3 -32 -4 -18 -7 -42 -17 -53 -21 -31 -13 -45 -14
-45 -5 0 5 8 11 18 14 22 7 70 56 55 56 -5 0 -18 -9 -29 -21 -29 -32 -106 -67
-90 -41 2 4 -12 7 -32 5 l-37 -3 30 10 c17 6 39 8 49 6 23 -6 56 10 56 26 0 6
-8 4 -18 -5 -23 -21 -33 -22 -26 -2 5 13 3 13 -22 0 -16 -8 -41 -15 -56 -15
-15 0 -30 -4 -33 -10 -10 -16 -25 -12 -19 5 4 8 16 15 29 15 25 0 88 20 82 27
-3 2 -39 -6 -82 -17 -43 -12 -84 -19 -91 -16 -7 3 -36 1 -63 -3 -33 -5 -48 -4
-44 2 4 7 -1 7 -13 2 -29 -12 -74 -14 -74 -3 0 6 7 7 16 4 8 -3 28 1 44 9 34
18 63 21 40 4 -13 -9 -13 -10 2 -6 9 3 33 9 52 13 20 3 36 11 36 16 0 6 -7 7
-16 4 -42 -16 -67 -19 -59 -6 9 15 -28 5 -62 -16 -26 -16 -37 -18 -28 -4 11
18 -11 10 -30 -10 -22 -24 -55 -29 -35 -5 7 9 10 18 7 22 -10 9 -38 -18 -30
-30 3 -5 1 -7 -5 -4 -5 4 -18 4 -27 1 -12 -5 -13 -9 -5 -14 7 -4 1 -7 -14 -7
l-26 0 27 23 c15 13 24 26 20 30 -4 4 -17 -2 -30 -14 -12 -12 -33 -23 -45 -25
-12 -2 -25 -6 -28 -10 -4 -4 -14 -7 -21 -7 -19 0 1 20 42 44 l30 17 -27 -4
c-15 -2 -29 0 -30 4 -2 5 -23 -5 -47 -21 -24 -17 -54 -30 -67 -30 -13 0 -25
-4 -28 -9 -5 -7 -76 -12 -76 -5 0 0 16 18 35 39 20 20 34 40 31 42 -2 3 -21
-14 -41 -36 -21 -23 -45 -41 -53 -41 -12 0 -9 5 8 17 28 19 49 44 50 57 0 4
-19 -7 -42 -26 -47 -38 -72 -51 -103 -53 -11 0 -31 -7 -43 -14 -13 -7 -26 -11
-28 -8 -2 2 13 12 35 23 25 12 42 29 50 49 18 51 13 52 -19 1 -17 -26 -34 -45
-39 -42 -4 3 -17 -2 -27 -12 -11 -9 -42 -28 -69 -41 -28 -13 -58 -28 -67 -33
-11 -5 -18 -4 -18 1 0 5 6 12 13 14 7 3 5 6 -5 6 -10 1 -18 -6 -18 -14 0 -8
-2 -15 -4 -15 -2 0 -13 -3 -23 -6 -17 -5 -17 -5 0 6 14 9 16 15 6 26 -9 12 -9
13 3 9 9 -4 22 4 32 20 25 38 16 39 -32 4 -23 -17 -48 -32 -55 -33 -6 -1 -22
-7 -34 -14 -12 -7 -30 -13 -40 -13 -10 -1 -4 -4 12 -8 21 -5 33 -2 41 8 8 10
13 11 18 2 4 -6 12 -9 17 -6 5 4 9 1 9 -4 0 -6 -8 -12 -17 -12 -10 -1 -31 -3
-48 -4 -79 -5 -82 -6 -60 -15 28 -12 37 -12 30 0 -3 6 -1 10 4 10 18 0 12 -19
-10 -30 -15 -8 -24 -8 -34 0 -11 9 -19 8 -35 -3 -11 -7 -18 -16 -15 -19 3 -2
-8 -4 -25 -4 -18 0 -26 4 -22 10 3 6 7 19 7 29 2 20 38 57 57 57 7 0 1 -8 -14
-18 -23 -15 -25 -21 -15 -32 8 -9 8 -11 0 -6 -15 8 -27 -10 -12 -19 13 -9 60
34 52 48 -4 6 0 8 10 4 9 -3 19 -2 22 3 4 6 -2 10 -12 10 -13 0 -10 5 12 20
20 13 39 18 57 14 22 -4 36 4 82 45 31 28 61 51 66 51 6 0 10 5 10 11 0 6 -15
2 -32 -10 -46 -29 -160 -82 -165 -77 -3 2 8 11 24 20 15 8 23 15 18 16 -6 0
-26 -11 -46 -24 -42 -29 -105 -56 -128 -56 -9 1 1 9 22 20 95 47 187 122 187
153 0 5 -10 -2 -21 -17 -22 -28 -122 -106 -136 -106 -4 0 13 20 37 45 24 25
38 45 31 45 -10 0 -9 6 5 21 19 22 19 22 -3 11 -46 -25 -149 -138 -130 -145
10 -3 -43 -2 -81 2 -22 2 38 69 97 108 30 20 49 39 43 41 -10 3 -10 7 -1 18
21 25 5 23 -26 -3 -29 -24 -29 -24 -5 -18 l25 6 -24 -18 c-13 -10 -48 -40 -77
-67 -30 -27 -54 -45 -54 -41 0 4 -8 1 -17 -6 -12 -10 -8 2 10 35 15 26 20 43
12 36 -9 -7 -18 -11 -21 -8 -3 3 16 24 42 47 26 23 45 44 42 46 -8 8 -108 -93
-108 -107 0 -9 4 -8 11 2 9 12 10 11 4 -5 -22 -68 -21 -73 36 -89 29 -9 58
-16 64 -16 6 0 19 -6 29 -13 16 -12 17 -17 6 -38 -19 -37 -51 -69 -87 -86 -18
-8 -33 -20 -33 -25 0 -5 5 -6 12 -2 7 5 8 3 3 -6 -6 -10 -10 -10 -20 3 -10 15
-14 15 -33 1 -17 -12 -22 -12 -22 -2 -1 8 -6 6 -15 -6 -8 -11 -18 -16 -22 -13
-3 4 -15 -1 -25 -10 -18 -16 -19 -16 -13 3 6 18 6 18 -8 2 -8 -10 -20 -18 -27
-18 -9 0 -6 8 8 23 12 13 22 27 22 32 0 5 -14 -7 -31 -28 -17 -20 -35 -37 -41
-37 -7 0 -1 12 13 27 13 14 18 23 11 19 -10 -6 -11 -1 -7 21 l6 28 -14 -31
c-8 -17 -22 -34 -32 -37 -13 -6 -13 -2 4 19 29 37 26 52 -3 17 -13 -15 -23
-31 -22 -34 0 -4 -8 -17 -19 -30 -11 -12 -15 -19 -8 -16 18 11 42 -3 40 -23
-1 -10 -4 -17 -8 -14 -4 2 -22 -2 -40 -10 -41 -17 -139 -27 -139 -15 0 5 13 9
28 9 15 0 34 6 41 13 9 7 11 7 8 1 -5 -9 4 -9 36 -2 57 12 66 25 23 30 -27 3
-36 0 -37 -12 0 -13 -1 -13 -7 0 -9 18 -42 25 -42 9 0 -8 -7 -6 -18 4 -15 14
-21 14 -34 4 -21 -17 -28 -43 -15 -56 7 -7 2 -10 -20 -8 -17 1 -29 5 -27 8 5
8 -72 69 -88 69 -10 0 -9 3 1 9 9 6 22 6 32 1 9 -5 20 -6 24 -2 5 4 5 2 1 -5
-3 -6 6 -20 23 -32 32 -23 41 -26 41 -11 0 6 -7 10 -15 10 -27 0 -16 18 15 25
16 4 32 11 35 16 4 5 11 9 16 9 6 0 8 -4 4 -9 -3 -5 -1 -12 4 -16 5 -3 14 3
20 12 6 10 11 14 11 10 0 -4 9 -3 19 2 16 9 18 8 14 -9 -8 -28 4 -25 22 8 9
15 14 19 11 10 -3 -12 -1 -15 9 -11 8 3 13 9 10 13 -3 5 -1 11 4 15 6 3 20 20
33 37 18 26 19 30 5 25 -12 -4 -17 -1 -17 11 -1 15 -2 15 -11 -2 -9 -14 -13
-15 -19 -5 -5 8 -1 24 12 42 64 90 63 244 -3 310 -17 16 -29 31 -27 32 2 1 41
15 88 31 47 15 115 43 151 60 76 37 244 96 274 96 11 0 40 -7 65 -15 27 -9
105 -18 195 -22 83 -4 153 -9 157 -12 5 -2 91 -4 193 -3 103 0 194 -4 203 -9
9 -5 37 -12 62 -15 58 -9 32 9 -28 19 -56 9 -44 21 44 46 38 10 75 26 83 34
26 26 33 16 12 -14z m259 4 c0 -3 -12 -17 -26 -30 -14 -13 -23 -28 -21 -32 3
-5 1 -15 -5 -23 -8 -12 -9 -12 -4 3 9 29 -10 10 -24 -23 -9 -22 -19 -30 -37
-30 l-25 0 24 31 c49 67 118 127 118 104z m-2496 -25 c57 -22 106 -61 56 -45
-14 4 -56 21 -95 36 -51 21 -63 29 -43 29 15 0 52 -9 82 -20z m480 -2 c6 -7
30 -39 53 -70 22 -32 44 -54 48 -50 5 4 6 2 2 -3 -3 -6 6 -33 20 -60 24 -49
25 -53 18 -187 l-7 -138 -54 0 c-30 0 -54 2 -54 5 0 3 12 16 27 29 l27 23 -20
28 c-10 15 -23 34 -29 41 -7 9 -1 31 18 70 15 31 26 58 24 60 -2 2 -41 -12
-86 -31 -74 -31 -110 -55 -111 -77 0 -5 -5 -8 -11 -8 -18 0 2 43 32 70 15 14
60 41 101 60 40 19 75 36 77 38 3 1 -5 12 -17 24 -20 20 -25 21 -54 9 -92 -36
-165 -61 -179 -61 -9 0 -24 10 -32 23 -12 16 -16 18 -16 6 -1 -9 8 -24 18 -33
17 -16 23 -16 68 -3 26 8 75 27 107 41 48 22 62 24 72 14 11 -11 -3 -21 -68
-55 -44 -24 -74 -36 -67 -27 8 9 40 28 71 42 32 13 58 28 58 33 0 4 -29 -5
-64 -21 -90 -40 -171 -64 -190 -57 -9 4 -21 17 -26 29 -8 22 -9 22 -9 3 -2
-45 48 -58 116 -30 l37 16 -43 -40 c-38 -35 -42 -43 -39 -78 3 -33 8 -41 40
-56 23 -11 46 -15 62 -11 31 7 34 20 6 29 -37 12 -13 55 38 68 25 6 26 4 11
-24 -8 -16 -6 -27 15 -54 l26 -33 -28 -20 c-15 -11 -24 -24 -20 -28 8 -7 58
40 58 55 0 5 -10 21 -22 36 -21 27 -21 29 -5 57 20 35 23 58 5 40 -7 -7 -22
-12 -34 -12 -49 0 -100 -78 -61 -93 7 -3 4 -6 -6 -6 -38 -2 -77 29 -77 61 0
19 47 78 62 78 5 0 -2 -14 -16 -31 -28 -33 -33 -58 -14 -77 16 -16 29 -15 27
1 -5 39 13 53 109 91 l61 24 -25 -50 -26 -50 31 -38 31 -39 -25 -19 c-14 -11
-25 -24 -25 -30 0 -6 -41 -10 -110 -9 -66 1 -111 -2 -113 -8 -5 -13 24 -75 35
-75 4 0 8 6 8 13 0 6 7 20 15 31 13 18 15 17 36 -19 l22 -37 20 26 c25 35 49
33 68 -6 21 -43 31 -44 53 -3 11 19 22 35 26 35 4 0 25 -14 46 -31 l38 -30 37
72 36 73 13 -55 c7 -30 17 -60 23 -67 14 -18 5 -24 -70 -38 -92 -18 -242 -17
-366 1 -107 17 -182 13 -229 -11 -25 -13 -27 -12 -37 18 -6 17 -11 64 -11 105
0 80 22 149 68 211 21 28 23 37 14 57 -7 15 -8 27 -2 30 5 3 12 -6 16 -20 3
-14 9 -25 13 -25 3 0 4 -50 3 -110 -2 -61 -1 -119 3 -128 6 -15 8 -15 23 4 10
11 23 19 29 17 7 -3 1 15 -12 40 -22 39 -25 55 -23 143 2 135 18 161 113 179
l30 6 -30 -15 c-16 -8 -38 -17 -47 -20 -23 -7 -50 -51 -46 -75 3 -18 10 -15
58 29 37 34 67 51 93 56 43 7 60 0 26 -11 -46 -15 -91 -36 -86 -41 10 -10 158
58 168 78 10 19 8 20 -40 17 -28 -2 -51 -2 -51 1 0 5 102 99 108 100 2 0 9 -6
16 -12z m1451 3 c-6 -5 -21 -12 -35 -15 l-25 -7 25 15 c28 17 50 21 35 7z
m-1256 -91 c-38 -56 -59 -79 -59 -65 0 14 85 125 96 125 2 0 -16 -27 -37 -60z
m55 38 c-4 -7 -14 -21 -22 -30 -7 -9 -11 -21 -8 -26 3 -5 -1 -18 -9 -28 -19
-25 -19 -40 -1 -25 10 8 16 9 21 1 3 -5 -1 -11 -9 -11 -14 -1 -22 -3 -41 -8
-2 0 0 -13 5 -28 l10 -28 -20 25 c-24 30 -25 40 -5 40 8 0 15 5 15 11 0 5 -5
7 -11 3 -8 -4 -7 0 1 15 6 12 16 18 22 15 7 -4 8 -2 4 5 -5 7 4 27 19 46 25
34 43 48 29 23z m1697 -61 c-8 -8 -11 -7 -11 4 0 20 13 34 18 19 3 -7 -1 -17
-7 -23z m-2693 -21 c-9 -21 -9 -32 -1 -45 9 -14 8 -22 -3 -33 -14 -13 -14 -17
1 -32 18 -18 51 -21 60 -6 3 6 11 10 17 10 5 0 0 -9 -13 -20 -13 -10 -19 -19
-14 -20 6 0 16 5 23 12 18 18 14 -3 -5 -24 -15 -17 -15 -18 10 -18 14 0 28 6
31 13 3 6 3 -2 0 -20 -6 -34 11 -55 19 -23 6 24 48 27 66 6 36 -43 32 -140 -8
-180 -25 -25 -28 -5 -6 34 8 14 14 41 15 60 0 37 -25 84 -40 75 -4 -3 -11 1
-14 7 -3 7 -4 -44 -3 -114 l2 -127 23 21 c12 12 22 16 22 10 0 -7 -4 -12 -9
-12 -5 0 -11 -18 -15 -41 -9 -59 -30 -94 -71 -117 -37 -23 -40 -22 -26 6 37
72 46 184 19 235 -15 28 -19 15 -8 -24 14 -49 12 -88 -6 -145 -9 -27 -18 -51
-20 -52 -1 -2 -21 -8 -44 -13 -35 -8 -47 -6 -81 13 -21 12 -39 27 -39 34 0 7
17 21 38 30 57 26 94 64 62 64 -5 0 -10 -6 -10 -14 0 -8 -17 -20 -37 -26 -21
-7 -49 -22 -62 -34 l-23 -21 6 50 c3 28 6 61 6 73 0 13 9 37 20 52 23 32 25
62 8 89 -10 16 -8 26 7 55 19 36 31 44 72 52 31 6 74 -53 81 -112 2 -25 9 -41
13 -37 16 16 -3 79 -37 126 -30 42 -38 47 -62 41 -15 -4 -32 -11 -39 -16 -15
-12 -22 26 -12 65 7 24 89 129 97 122 1 -1 -3 -15 -10 -29z m691 20 c-17 -12
-102 -10 -95 3 2 3 28 7 58 8 44 1 50 -1 37 -11z m2391 -31 c24 -29 5 -24 -25
7 -21 22 -24 28 -9 20 11 -6 27 -18 34 -27z m-2966 -31 l18 -25 35 21 c33 20
34 20 55 1 11 -11 34 -25 50 -32 38 -16 78 3 89 41 8 27 9 26 13 -7 3 -27 -16
-47 -65 -67 -33 -14 -43 -13 -127 8 -51 12 -98 28 -104 34 -7 7 -25 12 -40 12
-23 0 -28 4 -28 26 0 14 3 23 8 20 4 -2 18 2 32 9 22 12 26 12 35 -1 6 -9 18
-27 29 -40z m2937 19 c13 -16 12 -17 -3 -4 -10 7 -18 15 -18 17 0 8 8 3 21
-13z m-2037 -52 c37 -39 59 -113 50 -176 -7 -55 -36 -129 -55 -140 -14 -9 -11
2 17 75 23 60 22 146 -2 196 -12 24 -25 38 -34 36 -8 -2 -12 0 -8 4 4 4 3 13
-3 21 -22 25 8 13 35 -16z m2099 4 c4 3 5 2 2 -2 -3 -3 1 -13 7 -22 7 -9 -2
-3 -20 13 -18 17 -32 32 -32 34 0 3 8 -2 18 -11 10 -10 22 -15 25 -12z m-2139
-47 c22 -78 34 -224 17 -214 -6 4 -11 31 -11 59 0 49 -20 161 -35 200 -4 9 -3
17 2 17 5 0 18 -28 27 -62z m-924 37 c10 -12 9 -16 -4 -21 -24 -9 -47 3 -40
21 8 19 28 19 44 0z m201 -55 c23 0 23 -1 5 -45 -18 -42 -27 -43 -61 -9 -19
18 -33 24 -49 20 -14 -3 -23 -1 -23 7 0 6 -4 24 -8 39 l-7 26 62 -19 c34 -10
70 -19 81 -19z m759 19 c0 -6 -4 -7 -10 -4 -5 3 -10 11 -10 16 0 6 5 7 10 4 6
-3 10 -11 10 -16z m-650 -18 c0 -16 -6 -34 -14 -40 -8 -7 -24 -36 -36 -66 -12
-29 -29 -56 -37 -59 -22 -9 -24 -4 -10 20 45 78 58 108 55 127 -3 20 16 46 35
47 4 0 7 -13 7 -29z m575 -64 c3 -18 8 -40 11 -50 3 -10 0 -24 -6 -32 -18 -22
-33 -18 -21 4 6 10 8 21 5 23 -3 3 -7 34 -9 69 -4 65 8 56 20 -14z m13 66 c0
-5 2 -16 7 -26 4 -10 5 -21 1 -24 -7 -7 -25 39 -19 50 2 4 6 7 9 7 2 0 3 -3 2
-7z m-648 -30 c0 -30 -37 -99 -47 -89 -8 8 29 116 39 116 4 0 8 -12 8 -27z
m720 17 c0 -5 -2 -10 -4 -10 -3 0 -8 5 -11 10 -3 6 -1 10 4 10 6 0 11 -4 11
-10z m485 -50 c-21 -22 -41 -37 -44 -35 -6 7 60 75 73 75 6 0 -7 -18 -29 -40z
m766 10 c-13 -11 -28 -20 -35 -20 -6 0 0 9 14 20 33 26 52 25 21 0z m456 -16
c-3 -3 -12 -4 -19 -1 -8 3 -5 6 6 6 11 1 17 -2 13 -5z m-67 -20 c0 -2 -18 -4
-40 -4 -22 0 -40 3 -40 8 0 4 18 6 40 4 22 -2 40 -6 40 -8z m-459 -12 c-7 -2
-18 1 -23 6 -8 8 -4 9 13 5 13 -4 18 -8 10 -11z m686 2 c-3 -3 -12 -4 -19 -1
-8 3 -5 6 6 6 11 1 17 -2 13 -5z m-897 -14 c-20 -13 -40 -13 -40 0 0 6 12 10
28 10 21 0 24 -2 12 -10z m983 3 c-7 -2 -21 -2 -30 0 -10 3 -4 5 12 5 17 0 24
-2 18 -5z m-2803 -13 c0 -5 -4 -10 -10 -10 -5 0 -10 5 -10 10 0 6 5 10 10 10
6 0 10 -4 10 -10z m1305 0 c-3 -5 -11 -10 -16 -10 -6 0 -7 5 -4 10 3 6 11 10
16 10 6 0 7 -4 4 -10z m481 -5 c26 -13 26 -15 7 -15 -12 0 -24 6 -26 13 -4 9
-8 8 -16 -3 -6 -8 -11 -11 -11 -6 0 5 -7 3 -16 -4 -12 -11 -15 -11 -12 1 7 31
32 36 74 14z m-1719 -32 c-3 -10 -5 -4 -5 12 0 17 2 24 5 18 2 -7 2 -21 0 -30z
m673 30 c0 -5 -5 -15 -10 -23 -7 -12 -9 -10 -7 8 1 19 17 33 17 15z m1117 1
c-3 -3 -12 -4 -19 -1 -8 3 -5 6 6 6 11 1 17 -2 13 -5z m-187 -28 c0 -2 -7 -6
-15 -10 -8 -3 -15 -1 -15 4 0 6 7 10 15 10 8 0 15 -2 15 -4z m-870 -11 c0 -3
-13 -35 -30 -70 -16 -35 -30 -69 -30 -75 0 -16 -15 -12 -34 9 -16 17 -16 19 2
23 10 3 30 30 45 62 15 31 31 56 37 56 5 0 10 -2 10 -5z m2220 -15 c8 -5 11
-10 5 -10 -5 0 -17 5 -25 10 -8 5 -10 10 -5 10 6 0 17 -5 25 -10z m-2903 -69
l1 -69 -31 -5 c-45 -6 -59 1 -46 24 5 11 9 25 7 32 -4 17 33 76 51 80 9 3 16
5 16 6 0 0 1 -30 2 -68z m633 49 c0 -5 -2 -10 -4 -10 -3 0 -8 5 -11 10 -3 6
-1 10 4 10 6 0 11 -4 11 -10z m-344 -59 c16 13 18 1 4 -21 -9 -13 -11 -13 -20
0 -5 8 -9 20 -9 25 0 6 3 4 6 -3 4 -10 8 -10 19 -1z m209 -1 c3 -5 -1 -10 -10
-10 -9 0 -13 5 -10 10 3 6 8 10 10 10 2 0 7 -4 10 -10z m80 0 c-3 -5 -12 -10
-18 -10 -7 0 -6 4 3 10 19 12 23 12 15 0z m-118 -6 c-3 -3 -12 -4 -19 -1 -8 3
-5 6 6 6 11 1 17 -2 13 -5z m-77 -24 c0 -5 -4 -12 -10 -15 -5 -3 -10 -4 -10
-1 0 2 -3 12 -6 20 -5 12 -2 15 10 10 9 -3 16 -10 16 -14z m770 0 c-24 -15
-37 -11 -16 5 11 8 22 12 25 9 3 -3 -1 -9 -9 -14z m-670 -1 c0 6 7 11 15 11
13 0 13 -4 -2 -26 -16 -25 -17 -25 -30 -8 -18 24 -17 39 2 24 10 -9 15 -9 15
-1z m280 -25 c0 -8 -5 -12 -10 -9 -6 4 -8 11 -5 16 9 14 15 11 15 -7z m-771
-40 c2 -2 -5 -4 -16 -4 -11 0 -23 -3 -26 -7 -4 -3 -18 -7 -31 -9 -28 -3 -26
22 2 29 18 4 64 -1 71 -9z m819 -11 c-9 -10 -13 -24 -11 -30 6 -16 -7 -16 -27
-2 -10 7 -11 12 -4 15 6 3 20 11 30 19 26 19 30 19 12 -2z m-518 -3 l25 -1
-23 -10 c-17 -6 -31 -5 -50 7 l-27 15 25 -5 c14 -3 36 -6 50 -6z m680 0 c-8
-5 -22 -10 -30 -10 -13 0 -13 1 0 10 8 5 22 10 30 10 13 0 13 -1 0 -10z m-756
-16 c16 -3 59 -20 97 -39 38 -19 75 -35 82 -35 8 0 29 -8 48 -17 37 -19 176
-23 257 -8 34 6 42 5 42 -8 0 -22 -53 -37 -134 -37 -84 0 -121 11 -279 79
-125 54 -156 59 -197 36 -34 -20 -40 -19 -40 8 0 41 9 42 124 21z m159 -30
c16 -19 25 -34 19 -34 -5 0 -15 7 -22 15 -7 8 -17 12 -24 8 -6 -3 -8 -2 -3 2
4 5 0 17 -10 27 -13 14 -13 18 -2 17 8 0 27 -16 42 -35z m493 24 c4 4 2 -1 -5
-10 -7 -10 -17 -16 -21 -13 -5 3 -11 1 -15 -5 -3 -5 -14 -10 -23 -9 -13 0 -12
3 6 11 12 6 22 18 22 26 0 11 3 12 13 3 8 -6 18 -7 23 -3z m-425 -28 c18 -16
30 -32 26 -36 -4 -4 -9 0 -12 8 -4 10 -14 14 -28 10 -12 -3 -19 -1 -14 3 4 5
0 17 -10 27 -26 29 3 21 38 -12z"/>
<path d="M2190 2139 c0 -5 5 -7 10 -4 6 3 10 8 10 11 0 2 -4 4 -10 4 -5 0 -10
-5 -10 -11z"/>
<path d="M2660 1400 c0 -5 5 -10 11 -10 5 0 7 5 4 10 -3 6 -8 10 -11 10 -2 0
-4 -4 -4 -10z"/>
<path d="M2120 1330 c0 -5 5 -10 10 -10 6 0 10 5 10 10 0 6 -4 10 -10 10 -5 0
-10 -4 -10 -10z"/>
<path d="M3630 1325 c0 -2 6 -8 13 -14 10 -8 14 -7 14 2 0 8 -6 14 -14 14 -7
0 -13 -1 -13 -2z"/>
<path d="M3600 1290 c-8 -6 -46 -10 -85 -10 -79 -1 -66 -13 27 -24 51 -7 58
-5 68 14 14 26 10 32 -10 20z"/>
<path d="M2018 1220 c-70 -67 -77 -88 -11 -31 26 22 50 36 53 31 4 -6 19 3 35
20 33 34 23 41 -12 8 -23 -21 -34 -13 -11 10 6 6 10 13 7 14 -2 2 -30 -22 -61
-52z"/>
<path d="M2430 1266 c0 -2 8 -10 18 -17 15 -13 16 -12 3 4 -13 16 -21 21 -21
13z"/>
<path d="M2156 1234 c-15 -14 -26 -28 -22 -31 3 -3 -6 -22 -20 -40 -37 -49
-24 -51 15 -3 18 23 26 40 19 40 -7 0 1 11 17 24 17 13 28 26 25 29 -3 3 -18
-6 -34 -19z"/>
<path d="M1962 1197 c-12 -13 -22 -29 -22 -36 0 -7 12 2 26 19 31 36 27 50 -4
17z"/>
<path d="M2591 1166 c-39 -38 -50 -55 -40 -60 8 -3 4 -3 -8 0 -17 4 -23 1 -23
-10 0 -9 3 -16 8 -16 14 0 108 58 122 76 8 10 -6 4 -32 -14 -67 -46 -70 -40
-8 23 30 30 50 55 45 55 -6 -1 -34 -25 -64 -54z"/>
<path d="M2770 1184 l-35 -36 42 29 c23 15 42 31 43 36 0 15 -16 5 -50 -29z"/>
<path d="M2012 1167 c-18 -18 -32 -37 -32 -42 1 -6 10 1 20 14 l20 23 0 -27
c0 -23 2 -26 15 -15 17 14 21 35 5 25 -15 -9 -12 8 6 33 23 33 2 27 -34 -11z"/>
<path d="M2904 1168 l-29 -31 33 22 c17 12 32 27 32 32 0 14 -4 11 -36 -23z"/>
<path d="M3460 1190 c-12 -8 -11 -10 7 -10 12 0 25 5 28 10 8 13 -15 13 -35 0z"/>
<path d="M2405 1170 c-10 -11 -13 -20 -8 -20 13 0 38 29 31 35 -3 3 -13 -4
-23 -15z"/>
<path d="M2170 1130 c-25 -22 -40 -40 -34 -40 6 0 31 18 55 40 24 21 40 39 34
39 -5 0 -30 -17 -55 -39z"/>
<path d="M3910 1136 c0 -8 61 -38 66 -33 3 2 -1 9 -8 14 -16 13 -58 26 -58 19z"/>
<path d="M4000 1100 c0 -5 11 -10 25 -10 14 0 25 5 25 10 0 6 -11 10 -25 10
-14 0 -25 -4 -25 -10z"/>
<path d="M2346 1072 c-3 -5 1 -9 9 -9 8 0 15 4 15 9 0 4 -4 8 -9 8 -6 0 -12
-4 -15 -8z"/>
<path d="M2135 1007 c-8 -21 -19 -37 -24 -37 -4 0 -14 -12 -22 -27 -23 -47
-21 -49 11 -13 22 24 30 29 26 15 -5 -16 -3 -16 14 5 11 14 20 29 20 33 0 5 5
5 12 1 6 -4 8 -3 5 3 -4 6 0 13 8 17 19 7 20 23 1 23 -8 0 -21 -16 -30 -35 -9
-19 -19 -32 -22 -29 -3 3 2 19 11 37 9 18 14 34 11 37 -3 4 -13 -10 -21 -30z"/>
<path d="M2075 976 c-20 -31 -41 -59 -46 -62 -5 -3 -9 -11 -9 -17 1 -7 12 2
26 18 36 43 76 106 71 112 -3 2 -22 -21 -42 -51z"/>
<path d="M1992 906 c-17 -37 -15 -45 4 -18 8 12 14 27 12 33 -2 6 -9 -1 -16
-15z"/>
<path d="M1956 894 c-10 -25 1 -29 14 -5 6 12 7 21 1 21 -5 0 -12 -7 -15 -16z"/>
<path d="M1121 1073 c-30 -37 -36 -68 -21 -116 14 -48 36 -77 59 -77 13 1 13
3 -2 11 -45 26 -63 141 -27 174 20 18 20 17 20 -25 0 -87 72 -148 108 -91 9
14 20 29 25 32 5 4 4 9 -2 13 -5 4 -17 -7 -26 -24 -19 -37 -34 -38 -66 -4 -19
21 -24 36 -24 80 0 61 -12 69 -44 27z"/>
<path d="M1446 1018 c3 -5 10 -6 15 -3 13 9 11 12 -6 12 -8 0 -12 -4 -9 -9z"/>
<path d="M660 1101 c0 -5 12 -8 27 -7 37 4 63 -14 63 -42 0 -13 4 -20 10 -17
18 11 10 42 -15 59 -26 17 -85 22 -85 7z"/>
<path d="M688 1062 c-6 -21 17 -46 33 -36 8 4 7 9 -2 15 -11 7 -10 9 4 9 21 0
22 16 1 24 -25 9 -31 7 -36 -12z"/>
<path d="M712 1008 c-24 -24 -13 -45 29 -57 32 -10 44 -20 56 -48 8 -20 12
-47 8 -60 -4 -16 -2 -22 5 -18 34 21 -11 130 -58 141 -41 10 -45 15 -26 35 18
20 6 27 -14 7z"/>
<path d="M657 973 c4 -11 3 -14 -5 -9 -7 4 -12 1 -12 -8 0 -9 4 -16 9 -16 14
0 33 28 26 40 -10 16 -25 11 -18 -7z"/>
<path d="M1453 3596 c27 -21 56 -107 72 -215 16 -103 20 -271 7 -271 -4 0 -8
-53 -8 -117 0 -97 -4 -129 -22 -178 -14 -40 -16 -53 -6 -40 14 18 32 75 49
149 11 53 30 12 28 -62 -1 -50 -11 -95 -42 -180 -23 -62 -48 -126 -56 -142
-11 -22 -12 -28 -3 -25 13 6 61 108 73 158 4 15 25 46 47 69 l39 43 -4 -60
c-4 -62 -27 -122 -71 -187 -14 -21 -24 -38 -22 -38 14 0 67 35 91 60 28 29 32
44 38 133 0 15 4 27 8 27 14 0 18 30 10 80 -5 28 -4 53 1 56 4 3 5 10 2 16 -4
6 -2 8 3 5 22 -14 35 80 31 210 -5 124 -12 168 -27 158 -4 -2 -5 9 -3 26 3 21
0 29 -11 29 -10 0 -17 -16 -23 -52 -12 -84 -11 -129 3 -124 7 3 13 1 13 -4 0
-6 -4 -10 -10 -10 -5 0 -10 -7 -10 -15 0 -9 6 -12 16 -8 12 4 15 2 12 -8 -3
-8 -10 -15 -16 -15 -7 -1 -16 -2 -20 -3 -5 0 -9 -8 -9 -16 0 -11 4 -12 14 -4
7 6 13 8 13 3 0 -4 10 3 22 16 15 16 18 25 10 28 -7 2 -12 11 -12 21 0 9 -5
22 -11 28 -8 8 -6 20 7 43 19 31 19 31 26 8 10 -37 9 -126 -2 -133 -5 -3 -10
-15 -10 -26 0 -24 -16 -25 -24 -2 -6 14 -9 15 -16 4 -4 -8 -6 -21 -2 -29 4
-11 1 -14 -10 -10 -12 5 -14 0 -10 -20 5 -24 6 -25 13 -7 6 17 8 17 8 3 1 -10
6 -18 11 -18 6 0 10 -8 10 -17 0 -14 -2 -15 -9 -4 -6 9 -8 5 -8 -13 0 -14 3
-26 8 -26 13 0 6 -23 -10 -36 -11 -9 -11 -13 3 -26 12 -12 13 -18 3 -21 -8 -4
-8 -8 -2 -14 6 -4 11 -21 13 -38 l2 -30 -14 25 c-9 14 -15 33 -16 43 0 9 -4
17 -9 17 -8 0 -6 52 4 78 2 6 0 12 -5 12 -6 0 -10 -9 -10 -20 0 -11 -4 -20 -9
-20 -5 0 -12 -10 -14 -22 -3 -17 -5 -15 -6 9 0 17 3 34 9 38 5 3 7 12 4 20 -4
8 -11 12 -17 8 -6 -3 -7 -1 -3 6 4 6 12 9 17 6 5 -4 8 4 6 16 -2 13 -9 25 -15
27 -8 2 -10 -3 -5 -14 4 -12 3 -15 -5 -10 -17 10 -15 19 9 44 11 12 17 27 14
32 -3 6 0 10 7 11 7 0 -2 5 -20 10 -30 9 -32 12 -20 26 8 10 8 14 1 10 -25
-15 -28 80 -3 100 11 9 12 15 3 20 -16 11 -20 45 -5 49 7 1 8 0 3 -2 -19 -10
1 -34 28 -35 l26 0 -22 -16 c-27 -18 -29 -35 -8 -53 18 -15 20 1 3 18 -9 9 -9
12 2 13 8 1 19 1 24 0 25 -5 -45 287 -77 322 -7 7 -13 18 -15 26 -5 24 -65 91
-81 91 -14 -1 -13 -3 2 -14z m86 -166 c0 -10 -3 -8 -9 5 -12 27 -12 43 0 25 5
-8 9 -22 9 -30z m39 -55 c-3 -3 -9 2 -12 12 -6 14 -5 15 5 6 7 -7 10 -15 7
-18z m17 -80 c4 -30 2 -30 -16 -8 -12 14 -12 15 0 9 10 -7 12 -3 6 15 -4 13
-4 21 0 17 4 -4 9 -19 10 -33z m12 -67 c-3 -7 -5 -2 -5 12 0 14 2 19 5 13 2
-7 2 -19 0 -25z m-34 -190 c18 -14 20 -19 9 -30 -11 -11 -12 -10 -7 5 5 12 2
17 -9 17 -19 0 -36 38 -27 60 4 10 7 7 9 -10 2 -14 13 -33 25 -42z m132 -59
c-6 -72 -14 -92 -35 -79 -13 8 -12 10 3 10 21 0 19 28 -3 48 -8 8 -10 11 -3 8
6 -4 14 -2 18 4 3 5 1 10 -4 10 -6 0 -11 5 -11 11 0 6 7 9 15 5 8 -3 14 -2 14
2 -3 16 1 42 6 42 3 0 3 -27 0 -61z m-145 11 c0 -16 -4 -30 -10 -30 -5 0 -10
14 -10 30 0 17 5 30 10 30 6 0 10 -13 10 -30z m27 -202 c-3 -8 -6 -5 -6 6 -1
11 2 17 5 13 3 -3 4 -12 1 -19z"/>
<path d="M1093 3315 c0 -8 4 -12 9 -9 5 3 6 10 3 15 -9 13 -12 11 -12 -6z"/>
<path d="M1677 3160 c-3 -11 -1 -18 3 -15 5 3 11 -3 13 -12 3 -12 5 -8 6 9 1
33 -15 46 -22 18z"/>
<path d="M1267 3129 c-3 -22 -1 -55 4 -72 17 -56 49 -260 49 -310 0 -27 -5
-80 -12 -118 -8 -53 -8 -73 0 -81 7 -7 12 -20 12 -30 0 -10 5 -18 11 -18 7 0
8 9 3 28 -4 15 -8 43 -7 62 3 128 13 241 23 280 12 43 13 44 22 20 5 -13 12
-58 15 -100 4 -59 1 -92 -16 -153 -23 -85 -25 -101 -12 -93 5 3 17 36 27 73 9
38 27 86 38 108 l21 40 3 -71 c3 -74 -22 -167 -54 -199 -14 -13 -14 -17 0 -31
9 -8 16 -22 16 -30 0 -8 4 -14 9 -14 5 0 5 15 1 34 -6 27 -2 46 15 83 13 26
26 67 30 91 8 48 -3 162 -15 162 -4 0 -13 -14 -20 -30 -19 -47 -25 -43 -26 19
-1 56 -29 161 -43 161 -4 0 -13 -21 -21 -47 l-13 -48 -7 60 c-4 33 -15 89 -24
125 -10 40 -14 80 -11 103 4 21 3 37 -3 37 -5 0 -12 -18 -15 -41z"/>
<path d="M1620 3145 c-9 -23 -43 -37 -37 -16 1 5 -2 8 -8 8 -5 -1 -8 -6 -6
-12 2 -5 4 -16 4 -22 0 -10 3 -10 16 0 11 9 13 9 8 0 -5 -7 1 -16 12 -22 31
-17 36 -13 15 11 -10 12 -14 19 -8 15 6 -3 11 -1 11 6 0 7 3 22 7 35 10 30 -2
28 -14 -3z"/>
<path d="M1237 3133 c-10 -9 -8 -240 2 -338 6 -51 5 -82 -1 -86 -6 -4 -6 -20
1 -45 6 -22 11 -54 11 -72 0 -22 4 -31 11 -26 7 4 8 19 5 38 -4 17 -9 121 -12
231 -3 110 -7 216 -8 235 -2 19 1 37 5 40 4 3 4 11 0 18 -4 7 -10 9 -14 5z"/>
<path d="M1768 3015 c-1 -22 -2 -48 -2 -57 0 -9 -3 -15 -7 -13 -4 3 -14 -12
-22 -33 -8 -21 -22 -43 -29 -50 -20 -16 -15 -56 7 -60 11 -3 15 0 10 7 -3 6
-10 9 -15 6 -4 -3 -6 4 -3 14 3 11 12 22 20 26 13 4 14 3 3 -10 -7 -9 -9 -19
-5 -23 4 -4 10 -1 12 6 3 6 9 12 14 12 5 0 5 -10 0 -22 -4 -13 -7 -31 -6 -40
2 -10 -1 -18 -5 -18 -5 0 -11 8 -13 18 -4 14 -5 13 -6 -3 0 -12 -6 -26 -13
-33 -8 -8 -9 -12 -1 -12 6 0 13 6 16 13 2 6 7 9 11 5 4 -3 3 -16 -4 -27 -7
-13 -7 -21 -1 -21 12 0 36 41 33 53 -1 5 2 6 7 3 5 -4 12 0 14 6 3 7 6 3 6
-10 1 -13 -3 -20 -9 -17 -6 3 -10 -4 -10 -17 0 -18 2 -20 10 -8 8 12 10 11 10
-7 0 -15 6 -23 18 -23 13 0 14 -2 4 -9 -7 -4 -14 -22 -14 -39 -1 -17 -7 -33
-15 -36 -10 -4 -13 0 -9 12 2 9 7 26 10 37 3 11 1 27 -4 35 -12 18 -12 18 -15
-48 -2 -42 0 -52 11 -48 17 6 18 -3 4 -38 -7 -21 -6 -26 5 -26 8 0 15 -4 15
-10 0 -5 -7 -7 -15 -4 -16 6 -16 4 -19 -87 -1 -45 10 -57 31 -34 4 4 3 5 -4 1
-9 -5 -12 8 -10 49 1 30 6 55 11 55 5 0 6 -20 4 -45 -4 -34 -3 -43 6 -36 7 6
11 29 10 53 -1 24 6 74 17 113 19 69 25 145 12 145 -3 0 -14 -7 -24 -16 -16
-15 -17 -14 -17 18 1 61 -2 70 -15 65 -12 -4 -12 4 0 51 8 36 11 81 7 123 -7
80 -23 113 -26 54z m6 -121 c5 -14 4 -15 -9 -4 -17 14 -19 20 -6 20 5 0 12 -7
15 -16z m-19 -14 c3 -5 1 -10 -4 -10 -6 0 -11 5 -11 10 0 6 2 10 4 10 3 0 8
-4 11 -10z m80 -229 c-3 -6 -11 -11 -17 -11 -6 0 -6 6 2 15 14 17 26 13 15 -4z
m-12 -58 c-3 -18 -9 -33 -13 -33 -7 0 -5 24 6 59 8 24 12 7 7 -26z"/>
<path d="M2712 2940 c0 -19 2 -27 5 -17 2 9 2 25 0 35 -3 9 -5 1 -5 -18z"/>
<path d="M2090 2830 c0 -5 5 -10 11 -10 5 0 7 5 4 10 -3 6 -8 10 -11 10 -2 0
-4 -4 -4 -10z"/>
<path d="M1690 2780 c0 -5 5 -10 10 -10 6 0 10 5 10 10 0 6 -4 10 -10 10 -5 0
-10 -4 -10 -10z"/>
<path d="M1736 2678 c-3 -13 -1 -27 5 -33 7 -7 8 -5 4 6 -4 10 -2 20 4 24 13
8 14 25 2 25 -5 0 -11 -10 -15 -22z"/>
<path d="M1737 2616 c-4 -10 -5 -21 -2 -24 9 -9 17 6 13 25 -3 17 -4 17 -11
-1z"/>
<path d="M2283 2455 c0 -8 4 -12 9 -9 5 3 6 10 3 15 -9 13 -12 11 -12 -6z"/>
<path d="M1455 2430 c-17 -19 -17 -21 17 -52 35 -33 35 -34 28 -93 -7 -57 -6
-63 26 -112 38 -58 41 -65 18 -56 -12 4 -10 -6 10 -45 30 -59 31 -66 11 -58
-26 10 -17 -42 15 -90 34 -48 41 -95 27 -176 -5 -27 -4 -48 1 -48 11 0 32 113
25 139 -4 15 2 24 21 32 34 16 33 30 -2 23 -22 -5 -31 0 -50 25 l-22 31 25 6
c14 3 25 10 25 15 0 11 -3 11 -34 -1 -21 -7 -26 -6 -26 5 0 8 5 15 10 15 6 0
10 9 10 20 0 11 7 20 15 20 8 0 15 4 15 9 0 5 -8 7 -18 4 -13 -3 -22 4 -31 23
-11 25 -11 26 5 13 15 -13 16 -12 9 11 -11 36 -35 82 -54 104 -16 18 -24 126
-8 126 19 0 4 31 -28 58 -31 25 -34 30 -20 42 16 14 20 30 7 30 -5 0 -17 -9
-27 -20z"/>
<path d="M1396 2387 c3 -10 9 -15 12 -12 3 3 0 11 -7 18 -10 9 -11 8 -5 -6z"/>
<path d="M1555 2370 c-25 -27 -12 -37 14 -11 12 12 21 23 21 26 0 11 -18 4
-35 -15z"/>
<path d="M2317 2326 c-4 -10 -1 -13 8 -9 8 3 12 9 9 14 -7 12 -11 11 -17 -5z"/>
<path d="M1480 2295 c-1 -16 -2 -34 -1 -38 1 -5 -4 -7 -11 -5 -15 5 -53 -51
-42 -61 4 -3 8 -1 11 4 2 6 8 17 13 25 9 13 11 13 19 1 7 -10 11 -1 16 32 4
25 5 52 2 59 -3 7 -6 0 -7 -17z"/>
<path d="M2116 2302 c-3 -5 1 -9 9 -9 8 0 12 4 9 9 -3 4 -7 8 -9 8 -2 0 -6 -4
-9 -8z"/>
<path d="M1905 2261 c-3 -5 -2 -12 3 -15 5 -3 9 1 9 9 0 17 -3 19 -12 6z"/>
<path d="M1801 2191 c-6 -11 -7 -22 -2 -25 5 -3 11 4 14 16 8 30 1 35 -12 9z"/>
<path d="M1758 2189 c-19 -11 -24 -29 -8 -29 5 0 14 9 20 20 12 23 12 23 -12
9z"/>
<path d="M1756 2151 c-4 -5 -2 -20 3 -33 l10 -23 0 23 c1 12 6 22 12 22 5 0 7
5 4 10 -8 12 -22 13 -29 1z"/>
<path d="M2433 1935 c0 -8 4 -12 9 -9 5 3 6 10 3 15 -9 13 -12 11 -12 -6z"/>
<path d="M1947 1916 c-4 -10 -1 -13 8 -9 8 3 12 9 9 14 -7 12 -11 11 -17 -5z"/>
<path d="M2172 1874 c-14 -16 -5 -18 17 -5 7 5 9 11 5 14 -5 3 -15 -1 -22 -9z"/>
<path d="M30 1850 c0 -5 5 -10 10 -10 6 0 10 5 10 10 0 6 -4 10 -10 10 -5 0
-10 -4 -10 -10z"/>
<path d="M1736 1801 c-4 -5 -2 -12 3 -15 5 -4 12 -2 15 3 4 5 2 12 -3 15 -5 4
-12 2 -15 -3z"/>
<path d="M2148 1673 c-48 -3 -78 -8 -78 -15 0 -7 13 -8 38 -4 20 3 58 6 85 6
26 0 47 5 47 10 0 6 -3 9 -7 8 -5 -1 -43 -4 -85 -5z"/>
<path d="M2726 1658 c3 -5 10 -6 15 -3 13 9 11 12 -6 12 -8 0 -12 -4 -9 -9z"/>
<path d="M2461 1618 c-13 -38 -7 -48 16 -25 10 9 12 17 6 17 -6 0 -9 9 -6 20
8 32 -4 23 -16 -12z"/>
<path d="M2050 1537 c0 -12 -7 -33 -16 -45 -9 -13 -14 -26 -11 -29 6 -5 47 70
47 87 0 5 -4 10 -10 10 -5 0 -10 -10 -10 -23z"/>
<path d="M1992 1484 c-29 -37 -36 -51 -22 -44 21 11 76 87 69 95 -3 2 -24 -21
-47 -51z"/>
<path d="M790 1514 c0 -3 7 -12 15 -20 8 -8 12 -22 8 -32 -3 -10 2 -7 12 7 18
23 17 24 0 37 -20 15 -35 18 -35 8z"/>
<path d="M1931 1506 c-7 -8 -18 -13 -25 -10 -6 2 -25 -9 -41 -25 -34 -33 -70
-91 -58 -91 5 0 16 12 25 28 9 15 27 36 40 47 23 20 23 20 7 0 -38 -48 -28
-46 19 4 28 30 50 56 48 58 -2 2 -9 -3 -15 -11z"/>
<path d="M600 1489 c0 -5 5 -7 10 -4 6 3 10 8 10 11 0 2 -4 4 -10 4 -5 0 -10
-5 -10 -11z"/>
<path d="M1650 1450 c-9 -6 -10 -10 -3 -10 6 0 15 5 18 10 8 12 4 12 -15 0z"/>
<path d="M1781 1420 c-17 -22 -27 -40 -21 -40 6 0 13 7 16 15 4 8 9 13 13 11
4 -3 14 9 23 25 24 42 7 36 -31 -11z"/>
<path d="M4006 1213 c-6 -14 -5 -15 5 -6 7 7 10 15 7 18 -3 3 -9 -2 -12 -12z"/>
<path d="M3010 1099 c0 -5 5 -7 10 -4 6 3 10 8 10 11 0 2 -4 4 -10 4 -5 0 -10
-5 -10 -11z"/>
<path d="M230 740 c0 -5 5 -10 10 -10 6 0 10 5 10 10 0 6 -4 10 -10 10 -5 0
-10 -4 -10 -10z"/>
<path d="M1288 683 c7 -3 16 -2 19 1 4 3 -2 6 -13 5 -11 0 -14 -3 -6 -6z"/>
</g>
</svg>
